<svg width="111" height="151" viewBox="0 0 111 151" fill="none" xmlns="http://www.w3.org/2000/svg">
<path d="M95.9919 33.6025C95.7794 32.339 94.8783 31.2986 93.6549 30.9042C92.4316 30.5098 91.0897 30.8271 90.1746 31.7272L72.4661 49.543L58.4362 23.0323C57.8736 21.8969 56.7129 21.178 55.442 21.178C54.1712 21.178 53.0105 21.8969 52.4479 23.0323L44.8341 37.5237L25.5857 1.892C24.0458 -1.00628 19.6829 -0.239086 19.1696 3.00016L0.691162 121.147L50.2236 148.851C53.3406 150.556 57.1158 150.556 60.2327 148.851L110.193 121.147L95.9919 33.6025Z" fill="url(#paint0_linear_111_83)"/>
<mask id="mask0_111_83" style="mask-type:luminance" maskUnits="userSpaceOnUse" x="0" y="0" width="111" height="151">
<path d="M95.9919 33.6025C95.7794 32.339 94.8783 31.2986 93.6549 30.9042C92.4316 30.5098 91.0897 30.8271 90.1746 31.7272L72.4661 49.543L58.4362 23.0323C57.8736 21.8969 56.7129 21.178 55.442 21.178C54.1712 21.178 53.0105 21.8969 52.4479 23.0323L44.8341 37.5237L25.5857 1.892C24.0458 -1.00628 19.6829 -0.239086 19.1696 3.00016L0.691162 121.147L50.2236 148.851C53.3406 150.556 57.1158 150.556 60.2327 148.851L110.193 121.147L95.9919 33.6025Z" fill="url(#paint1_linear_111_83)"/>
</mask>
<g mask="url(#mask0_111_83)">
<path d="M95.9919 33.6025C95.7794 32.339 94.8783 31.2986 93.6549 30.9042C92.4316 30.5098 91.0897 30.8271 90.1746 31.7272L72.4661 49.543L58.4362 23.0323C57.8736 21.8969 56.7129 21.178 55.442 21.178C54.1712 21.178 53.0105 21.8969 52.4479 23.0323L44.8341 37.5237L25.5857 1.892C24.0458 -1.00628 19.6829 -0.239086 19.1696 3.00016L0.691162 121.147L50.2236 148.851C53.3406 150.556 57.1158 150.556 60.2327 148.851L110.193 121.147L95.9919 33.6025Z" fill="url(#paint2_linear_111_83)"/>
</g>
<defs>
<linearGradient id="paint0_linear_111_83" x1="-3.12144" y1="25.6379" x2="133.133" y2="97.954" gradientUnits="userSpaceOnUse">
<stop stop-color="white" stop-opacity="0.1"/>
<stop offset="1" stop-color="white" stop-opacity="0"/>
</linearGradient>
<linearGradient id="paint1_linear_111_83" x1="-3.12144" y1="25.6379" x2="133.133" y2="97.954" gradientUnits="userSpaceOnUse">
<stop stop-color="white" stop-opacity="0.1"/>
<stop offset="1" stop-color="white" stop-opacity="0"/>
</linearGradient>
<linearGradient id="paint2_linear_111_83" x1="-3.12144" y1="25.6379" x2="133.133" y2="97.954" gradientUnits="userSpaceOnUse">
<stop stop-color="white" stop-opacity="0.1"/>
<stop offset="1" stop-color="white" stop-opacity="0"/>
</linearGradient>
</defs>
</svg>
